<?xml version="1.0" encoding="utf-8"?>
<!-- Generator: Adobe Illustrator 16.0.0, SVG Export Plug-In . SVG Version: 6.00 Build 0)  -->
<!DOCTYPE svg PUBLIC "-//W3C//DTD SVG 1.1//EN" "http://www.w3.org/Graphics/SVG/1.1/DTD/svg11.dtd">
<svg version="1.1" id="圖層_1" xmlns="http://www.w3.org/2000/svg" xmlns:xlink="http://www.w3.org/1999/xlink" x="0px" y="0px"
	 width="200px" height="200px" viewBox="0 0 200 200" enable-background="new 0 0 200 200" xml:space="preserve">
<g>
	<ellipse fill="#FFFFFF" cx="100.187" cy="151.609" rx="6.477" ry="5.573"/>
	<path fill="#FFFFFF" d="M89.116,49.953h23.04c0.623,0,1.131-1.011,1.131-2.261c0-1.246-0.508-2.257-1.131-2.257h-23.04
		c-0.625,0-1.131,1.011-1.131,2.257C87.985,48.942,88.491,49.953,89.116,49.953z"/>
	<path fill="#FFFFFF" d="M124.96,56.925H75.04c-0.538,0-0.976,0.438-0.976,0.977v81.618c0,0.538,0.438,0.979,0.976,0.979h49.92
		c0.538,0,0.976-0.44,0.976-0.979V57.901C125.936,57.362,125.498,56.925,124.96,56.925z"/>
	<path fill="#FFFFFF" d="M100,8.196c-50.703,0-91.804,41.104-91.804,91.806S49.297,191.804,100,191.804
		c50.702,0,91.804-41.101,91.804-91.802S150.702,8.196,100,8.196z M138.819,161.082c0,0.809-0.654,1.462-1.461,1.462H62.641
		c-0.806,0-1.462-0.653-1.462-1.462V38.918c0-0.806,0.656-1.462,1.462-1.462h74.718c0.807,0,1.461,0.656,1.461,1.462V161.082z"/>
</g>
</svg>
