<?xml version="1.0" encoding="utf-8"?>
<!-- Generator: Adobe Illustrator 16.0.0, SVG Export Plug-In . SVG Version: 6.00 Build 0)  -->
<!DOCTYPE svg PUBLIC "-//W3C//DTD SVG 1.1//EN" "http://www.w3.org/Graphics/SVG/1.1/DTD/svg11.dtd">
<svg version="1.1" id="圖層_1" xmlns="http://www.w3.org/2000/svg" xmlns:xlink="http://www.w3.org/1999/xlink" x="0px" y="0px"
	 width="200px" height="200px" viewBox="0 0 200 200" enable-background="new 0 0 200 200" xml:space="preserve">
<g>
	<path fill="#FFFFFF" d="M159.452,62.993H40.546c-0.786,0-1.423,0.646-1.423,1.441v73.769c0,0.797,0.637,1.442,1.423,1.442h118.906
		c0.787,0,1.424-0.646,1.424-1.442V64.435C160.876,63.64,160.239,62.993,159.452,62.993z"/>
	<path fill="#FFFFFF" d="M99.999,7.065c-51.326,0-92.934,41.608-92.934,92.934c0,51.327,41.607,92.936,92.934,92.936
		s92.936-41.608,92.936-92.936C192.935,48.674,151.325,7.065,99.999,7.065z M169.036,146.661h-53.539v7.442h19.256v5.322H65.245
		v-5.322h19.256v-7.442H30.962c-0.912,0-1.652-0.77-1.652-1.717V57.195c0-0.948,0.74-1.717,1.652-1.717h138.074
		c0.912,0,1.652,0.769,1.652,1.717v87.749C170.688,145.892,169.948,146.661,169.036,146.661z"/>
</g>
</svg>
