<?xml version="1.0" encoding="utf-8"?>
<!-- Generator: Adobe Illustrator 16.0.0, SVG Export Plug-In . SVG Version: 6.00 Build 0)  -->
<!DOCTYPE svg PUBLIC "-//W3C//DTD SVG 1.1//EN" "http://www.w3.org/Graphics/SVG/1.1/DTD/svg11.dtd">
<svg version="1.1" id="圖層_1" xmlns="http://www.w3.org/2000/svg" xmlns:xlink="http://www.w3.org/1999/xlink" x="0px" y="0px"
	 width="200px" height="200px" viewBox="0 0 200 200" enable-background="new 0 0 200 200" xml:space="preserve">
<g>
	<ellipse fill="#114F68" cx="47.882" cy="100" rx="3.768" ry="4.027"/>
	<path fill="#114F68" d="M152.758,85.761c-1.219,0-2.207,0.57-2.207,1.272v25.934c0,0.703,0.988,1.273,2.207,1.273
		c1.221,0,2.209-0.57,2.209-1.273V87.033C154.967,86.331,153.979,85.761,152.758,85.761z"/>
	<path fill="#114F68" d="M143.676,63.681H56.764c-0.574,0-1.04,0.608-1.04,1.362v69.689c0,0.754,0.466,1.365,1.04,1.365h86.912
		c0.572,0,1.041-0.611,1.041-1.365V65.043C144.717,64.289,144.248,63.681,143.676,63.681z"/>
	<path fill="#114F68" d="M100.001,9.078c-50.216,0-90.923,40.707-90.923,90.923c0,50.214,40.707,90.921,90.923,90.921
		c50.214,0,90.921-40.707,90.921-90.921C190.922,49.785,150.215,9.078,100.001,9.078z M161.129,142.051
		c0,0.908-0.641,1.646-1.43,1.646H40.302c-0.791,0-1.43-0.738-1.43-1.646V57.95c0-0.909,0.639-1.646,1.43-1.646h119.397
		c0.789,0,1.43,0.737,1.43,1.646V142.051z"/>
</g>
</svg>
